<svg id="Layer_1" data-name="Layer 1" xmlns="http://www.w3.org/2000/svg" xmlns:xlink="http://www.w3.org/1999/xlink" viewBox="0 0 1413.32 424.53"><defs><style>.cls-1{fill:none;}.cls-2{clip-path:url(#clip-path);}.cls-3{fill:#fff;}.cls-4{clip-path:url(#clip-path-18);}</style><clipPath id="clip-path" transform="translate(-9.13 0)"><rect class="cls-1" x="9.13" width="1422.45" height="424.5"/></clipPath><clipPath id="clip-path-18" transform="translate(-9.13 0)"><rect class="cls-1" width="1422.45" height="424.5"/></clipPath></defs><title>outdoorCollectiveHead</title><g class="cls-2"><path class="cls-3" d="M425.91,151.27A209.56,209.56,0,0,0,384.23,74.6a205,205,0,0,0-23.67-23.66A211,211,0,0,0,239.13,0V36.53a179.14,179.14,0,0,1,96.48,39.36A173,173,0,0,1,359.53,99.3a181.85,181.85,0,0,1,27.27,43.48,168,168,0,0,1,11.58,36,165.32,165.32,0,0,1,3.6,34v2.83a178.12,178.12,0,0,1-40.13,113.2L305,272l-23.68-23.69-35.24-35.5-6.95-6.95-16.71-16.72-16.72,16.72-6.95,6.95L163.24,248l-23.67,23.67L82.71,328.53a179.49,179.49,0,0,1-40.13-113.2V212.5a208.76,208.76,0,0,1,3.6-34A179.08,179.08,0,0,1,85,99,170.74,170.74,0,0,1,109,75.59a177.63,177.63,0,0,1,96.48-39.36V0A212.56,212.56,0,0,0,83.74,50.42,205.08,205.08,0,0,0,60.07,74.09a214.15,214.15,0,0,0-28.3,42.45,217.61,217.61,0,0,0-13.64,34,212,212,0,0,0-9,61.74v.52A211.31,211.31,0,0,0,60.58,351a205.08,205.08,0,0,0,23.67,23.67A208.49,208.49,0,0,0,127,402.92a194,194,0,0,0,34,13.38,199.83,199.83,0,0,0,44.77,8.23V394.65a133.32,133.32,0,0,1-20.07-3.09l36.79-36.79,36.79,36.79q-9.65,1.94-20.07,3.09v29.84A208.83,208.83,0,0,0,283.68,416a195.46,195.46,0,0,0,34-13.63,214.52,214.52,0,0,0,66.12-52,211.48,211.48,0,0,0,50.86-137.61v-.52a207.2,207.2,0,0,0-8.75-61M295.22,380,246.31,331.1l-6.92-6.94-16.72-16.73-16.73,16.73L199,331.1,150.11,380a171.74,171.74,0,0,1-43.47-27.28L222.92,236.43,339.21,352.71a196.09,196.09,0,0,1-44,27.28" transform="translate(-9.13 0)"/></g><g class="cls-2"><path class="cls-3" d="M534.89,143.32a42.68,42.68,0,0,1,2.83-15.69A36,36,0,0,1,546,115.54a38.38,38.38,0,0,1,12.35-7.72,49.16,49.16,0,0,1,31.39,0,35.42,35.42,0,0,1,20.58,19.81,38.64,38.64,0,0,1,2.83,15.69,42.77,42.77,0,0,1-2.83,15.7A35.94,35.94,0,0,1,602,171.16a38.73,38.73,0,0,1-12.35,7.72,49.3,49.3,0,0,1-31.39,0,35.5,35.5,0,0,1-20.58-19.81,43.87,43.87,0,0,1-2.83-15.7m16.72,0a27.14,27.14,0,0,0,1.55,9.27,20.32,20.32,0,0,0,4.63,7.46A23.91,23.91,0,0,0,565,165a24.74,24.74,0,0,0,18.53,0,23.91,23.91,0,0,0,7.2-4.89,20.32,20.32,0,0,0,4.63-7.46,28.55,28.55,0,0,0,0-18.53,20.24,20.24,0,0,0-4.63-7.46,23.73,23.73,0,0,0-7.2-4.89,24.74,24.74,0,0,0-18.53,0,23.73,23.73,0,0,0-7.2,4.89,20.24,20.24,0,0,0-4.63,7.46,27,27,0,0,0-1.55,9.26" transform="translate(-9.13 0)"/></g><g class="cls-2"><path class="cls-3" d="M722.31,152.56a34.82,34.82,0,0,1-2.06,11.83,28.29,28.29,0,0,1-5.92,9.52,27.89,27.89,0,0,1-9.52,6.18,35.22,35.22,0,0,1-13.12,2.31,35.72,35.72,0,0,1-13.38-2.31,27.84,27.84,0,0,1-9.52-6.18,25.3,25.3,0,0,1-5.66-9.52,34.56,34.56,0,0,1-2-11.83V108.05h16v43.74a15.48,15.48,0,0,0,1,6.17,15.93,15.93,0,0,0,3.08,4.89,14.3,14.3,0,0,0,16.38,3.31,11.93,11.93,0,0,0,4.63-3.34,16.2,16.2,0,0,0,3.09-4.86,16.62,16.62,0,0,0,1-6.17V108.05h16Z" transform="translate(-9.13 0)"/></g><g class="cls-2"><polygon class="cls-3" points="772.33 122.2 751.75 122.2 751.75 108.05 809.12 108.05 809.12 122.2 788.28 122.2 788.28 180.6 772.33 180.6 772.33 122.2"/></g><g class="cls-2"><path class="cls-3" d="M856.58,108.05h23.93A67.23,67.23,0,0,1,897,110.16a38.91,38.91,0,0,1,13.64,6.17,30.93,30.93,0,0,1,9.26,11.32c2.32,4.63,3.35,10.29,3.35,17,0,5.92-1,11.06-3.35,15.44a35.11,35.11,0,0,1-9,11.32,37.68,37.68,0,0,1-13.12,6.94,50.81,50.81,0,0,1-15.44,2.25H856.07V108.05Zm16,57.63h8.24a44,44,0,0,0,10.29-1,22.15,22.15,0,0,0,8.23-3.86,18.12,18.12,0,0,0,5.4-6.95,24.44,24.44,0,0,0,2.06-10.29,20.45,20.45,0,0,0-2.06-9.26,16.59,16.59,0,0,0-5.4-6.43,21,21,0,0,0-8-3.86,38.79,38.79,0,0,0-9.52-1.29h-9.51v43Z" transform="translate(-9.13 0)"/></g><g class="cls-2"><path class="cls-3" d="M960.78,144.32a42.72,42.72,0,0,1,2.83-15.69,35.88,35.88,0,0,1,8.23-12.09,38.27,38.27,0,0,1,12.35-7.72,49.16,49.16,0,0,1,31.39,0,35.53,35.53,0,0,1,20.58,19.81,38.84,38.84,0,0,1,2.83,15.69,42.77,42.77,0,0,1-2.83,15.7,36.06,36.06,0,0,1-8.24,12.09,38.62,38.62,0,0,1-12.34,7.72,49.16,49.16,0,0,1-31.39,0A35.45,35.45,0,0,1,963.61,160a38.72,38.72,0,0,1-2.83-15.7m16.46,0a26.86,26.86,0,0,0,1.55,9.27,20.32,20.32,0,0,0,4.63,7.46,23.6,23.6,0,0,0,7.2,4.89,24.72,24.72,0,0,0,18.52,0,23.89,23.89,0,0,0,7.21-4.89,20.32,20.32,0,0,0,4.63-7.46,28.68,28.68,0,0,0,0-18.53,20.32,20.32,0,0,0-4.63-7.46,23.89,23.89,0,0,0-7.21-4.89,24.72,24.72,0,0,0-18.52,0,23.6,23.6,0,0,0-7.2,4.89,20.32,20.32,0,0,0-4.63,7.46,26.8,26.8,0,0,0-1.55,9.26" transform="translate(-9.13 0)"/></g><g class="cls-2"><path class="cls-3" d="M1076.31,144.32a42.72,42.72,0,0,1,2.83-15.69,35.88,35.88,0,0,1,8.23-12.09,38.27,38.27,0,0,1,12.35-7.72,49.16,49.16,0,0,1,31.39,0,35.47,35.47,0,0,1,20.58,19.81,38.84,38.84,0,0,1,2.83,15.69,42.77,42.77,0,0,1-2.83,15.7,36,36,0,0,1-8.23,12.09,38.38,38.38,0,0,1-12.35,7.72,49.16,49.16,0,0,1-31.39,0A35.45,35.45,0,0,1,1079.14,160a43.66,43.66,0,0,1-2.83-15.7m16.47,0a26.62,26.62,0,0,0,1.54,9.27,20.32,20.32,0,0,0,4.63,7.46,23.65,23.65,0,0,0,7.21,4.89,24.72,24.72,0,0,0,18.52,0,23.73,23.73,0,0,0,7.2-4.89,20.32,20.32,0,0,0,4.63-7.46,28.55,28.55,0,0,0,0-18.53,20.32,20.32,0,0,0-4.63-7.46,23.73,23.73,0,0,0-7.2-4.89,24.72,24.72,0,0,0-18.52,0,23.65,23.65,0,0,0-7.21,4.89,20.32,20.32,0,0,0-4.63,7.46,26.79,26.79,0,0,0-1.54,9.26" transform="translate(-9.13 0)"/></g><g class="cls-2"><path class="cls-3" d="M1195.67,108.05h28a47.35,47.35,0,0,1,10.55,1,24.21,24.21,0,0,1,8.74,3.6,18.5,18.5,0,0,1,5.92,6.69,22.17,22.17,0,0,1,2.32,10.55c0,5.14-1.29,9.52-4.12,13.12a16.64,16.64,0,0,1-11.58,6.69L1254,180.31h-19l-15.18-29.07h-8v29.07h-16V108.05Zm16,29.84h9.52a31.25,31.25,0,0,0,4.63-.25,12.26,12.26,0,0,0,4.37-1,9.8,9.8,0,0,0,3.34-2.32,7.61,7.61,0,0,0,1.29-4.63,7.35,7.35,0,0,0-1-4.37,13.6,13.6,0,0,0-2.83-2.58,15.32,15.32,0,0,0-4.11-1.28,25.7,25.7,0,0,0-4.38-.26H1212v16.72Z" transform="translate(-9.13 0)"/></g><g class="cls-2"><path class="cls-3" d="M593.14,262.16a18.7,18.7,0,0,0-5.66-4.37,19.15,19.15,0,0,0-8-1.54,17.49,17.49,0,0,0-8.23,1.8,21.4,21.4,0,0,0-6.69,4.89,23.37,23.37,0,0,0-4.37,7.46,28.39,28.39,0,0,0,0,18.52A21.53,21.53,0,0,0,571,301.27a17.17,17.17,0,0,0,8,1.8,19,19,0,0,0,8.74-2.06,16.33,16.33,0,0,0,6.18-5.66l13.38,10a27.69,27.69,0,0,1-11.58,9.52A35.82,35.82,0,0,1,581,318a44.77,44.77,0,0,1-15.73-2.54,35.45,35.45,0,0,1-20.58-19.81,38.67,38.67,0,0,1-2.83-15.69,42.77,42.77,0,0,1,2.83-15.7,36,36,0,0,1,8.27-12,38.38,38.38,0,0,1,12.31-7.76A44.58,44.58,0,0,1,581,241.83a63.24,63.24,0,0,1,6.44.51,26.52,26.52,0,0,1,6.47,1.82,24.43,24.43,0,0,1,6.17,3.34,20.71,20.71,0,0,1,5.41,5.15Z" transform="translate(-9.13 0)"/></g><g class="cls-2"><path class="cls-3" d="M642.31,279.65A42.28,42.28,0,0,1,645.14,264a35.71,35.71,0,0,1,8.17-12.1,38.46,38.46,0,0,1,12.38-7.7,43.41,43.41,0,0,1,15.69-2.58,44.36,44.36,0,0,1,15.69,2.58A35.43,35.43,0,0,1,717.66,264a39,39,0,0,1,2.83,15.69,42.72,42.72,0,0,1-2.83,15.69,36.06,36.06,0,0,1-8.24,12.09,38.38,38.38,0,0,1-12.35,7.72,49,49,0,0,1-31.38,0,35.45,35.45,0,0,1-20.58-19.81,43.2,43.2,0,0,1-2.8-15.7m16.72,0a26.79,26.79,0,0,0,1.54,9.26,20.32,20.32,0,0,0,4.63,7.46,23.65,23.65,0,0,0,7.21,4.89,24.72,24.72,0,0,0,18.52,0,23.73,23.73,0,0,0,7.2-4.89,20.32,20.32,0,0,0,4.63-7.46,28.52,28.52,0,0,0,0-18.52,20.24,20.24,0,0,0-4.63-7.46,23.73,23.73,0,0,0-7.2-4.89,24.72,24.72,0,0,0-18.52,0,23.65,23.65,0,0,0-7.21,4.89,20.24,20.24,0,0,0-4.63,7.46,26.56,26.56,0,0,0-1.54,9.26" transform="translate(-9.13 0)"/></g><g class="cls-2"><polygon class="cls-3" points="753.29 243.38 769.24 243.38 769.24 301.01 798.83 301.01 798.83 315.93 753.29 315.93 753.29 243.38"/></g><g class="cls-2"><polygon class="cls-3" points="838.45 243.38 854.4 243.38 854.4 301.01 883.99 301.01 883.99 315.93 838.45 315.93 838.45 243.38"/></g><g class="cls-2"><polygon class="cls-3" points="923.86 243.38 973 243.38 973 258.04 939.81 258.04 939.81 271.68 971.2 271.68 971.2 286.34 939.81 286.34 939.81 301.01 974.8 301.01 974.8 315.93 923.86 315.93 923.86 243.38"/></g><g class="cls-2"><path class="cls-3" d="M1074.49,262.16a18.7,18.7,0,0,0-5.66-4.37,19.15,19.15,0,0,0-8-1.54,17.55,17.55,0,0,0-8.24,1.8,21.4,21.4,0,0,0-6.69,4.89,23.67,23.67,0,0,0-4.37,7.46,28.52,28.52,0,0,0,0,18.52,21.51,21.51,0,0,0,10.81,12.35,17,17,0,0,0,8,1.8,19,19,0,0,0,8.75-2.06,16.38,16.38,0,0,0,6.17-5.66l13.38,10a27.69,27.69,0,0,1-11.58,9.52A35.78,35.78,0,0,1,1062.4,318a44.58,44.58,0,0,1-15.69-2.57,35.52,35.52,0,0,1-20.59-19.81,38.84,38.84,0,0,1-2.83-15.69,42.77,42.77,0,0,1,2.83-15.7,35.91,35.91,0,0,1,8.24-12.09,38.27,38.27,0,0,1,12.35-7.72,44.58,44.58,0,0,1,15.69-2.57,63,63,0,0,1,6.43.51,26.1,26.1,0,0,1,6.48,1.85,24.32,24.32,0,0,1,6.18,3.34,20.51,20.51,0,0,1,5.4,5.15Z" transform="translate(-9.13 0)"/></g><g class="cls-2"><polygon class="cls-3" points="1132.51 257.53 1111.93 257.53 1111.93 243.38 1169.3 243.38 1169.3 257.53 1148.46 257.53 1148.46 315.93 1132.51 315.93 1132.51 257.53"/></g><g class="cls-2"><rect class="cls-3" x="1207.37" y="243.38" width="15.95" height="72.55"/></g><g class="cls-2"><polygon class="cls-3" points="1261.14 243.38 1279.41 243.38 1297.16 290.97 1297.42 290.97 1315.69 243.38 1332.67 243.38 1302.82 315.93 1289.96 315.93 1261.14 243.38"/></g><g class="cls-4"><polygon class="cls-3" points="1362.13 243.38 1411.52 243.38 1411.52 258.04 1378.08 258.04 1378.08 271.68 1409.47 271.68 1409.47 286.34 1378.08 286.34 1378.08 301.01 1413.32 301.01 1413.32 315.93 1362.13 315.93 1362.13 243.38"/></g></svg>